PathFileType	4	(X/Y/Z)	E:\MAC3D_DATA\2020_06_02_vinay\TPose1.trc																																																																
DataRate	CameraRate	NumFrames	NumMarkers	Units	OrigDataRate	OrigDataStartFrame	OrigNumFrames																																																												
1000	200	16	22	mm	200	312	498																																																												
Frame#	Time	RAsis			LAsis			RPsi			LPsi			RThigh1			RThigh2			RThigh3			RKneeOut			RKneeIn			LThigh1			LThigh2			LThigh3			LKneeOut			LKneeIn			MidAsis			MidPsi			MidPelvis			RHJC			LHJC			MidHJC			RKJC			LKJC		
		X1	Y1	Z1	X2	Y2	Z2	X3	Y3	Z3	X4	Y4	Z4	X5	Y5	Z5	X6	Y6	Z6	X7	Y7	Z7	X8	Y8	Z8	X9	Y9	Z9	X10	Y10	Z10	X11	Y11	Z11	X12	Y12	Z12	X13	Y13	Z13	X14	Y14	Z14	X15	Y15	Z15	X16	Y16	Z16	X17	Y17	Z17	X18	Y18	Z18	X19	Y19	Z19	X20	Y20	Z20	X21	Y21	Z21	X22	Y22	Z22
																																																																			
312	1.555	80.3771	1582.98	194.881	80.7095	1582.09	-79.0675	203.324	1531.62	58.6034	56.5231	1602.2	54.6713	3.93035	1486.68	62.2045	238.047	1026.7	193.546	249.026	1032.17	-48.075	50.3116	1069.45	115.076	50.4406	1066.29	20.1214	170.028	766.086	269.254	100.967	708.102	276.874	185.315	709.259	247.447	107.223	541.724	271.994	97.7741	525.224	160.538	191.69	778.376	-135.139	129.315	785.965	-147.609	142.382	714.939	-148.956	127.91	544.219	-145.524	106.281	526.355	-33.3297	21.1746	348.207	301.281	-1.25213	287.455	274.966	71.5393	316.224	292.211
313	1.56	80.496	1583.21	194.861	80.6804	1582.13	-79.1299	203.302	1531.6	58.5842	56.5292	1602.2	54.6555	3.91752	1486.7	62.1851	238.019	1026.71	193.527	249.004	1032.17	-48.0765	50.2993	1069.41	115.066	50.4127	1066.28	20.1048	170.067	766.105	269.265	100.958	708.079	276.888	185.308	709.248	247.428	107.232	541.74	272.026	97.746	525.199	160.532	191.668	778.372	-135.143	129.313	785.98	-147.628	142.375	714.937	-148.997	127.896	544.192	-145.516	106.248	526.366	-33.3354	21.1548	348.218	301.258	-1.1634	287.447	274.978	71.5411	316.238	292.215
314	1.565	80.3754	1582.96	194.872	80.6697	1582.14	-79.153	203.297	1531.58	58.5569	56.4945	1602.18	54.6577	3.89486	1486.69	62.2093	238.017	1026.71	193.515	248.966	1032.17	-48.092	50.2726	1069.42	115.067	50.4095	1066.27	20.124	170.077	766.103	269.233	100.938	708.057	276.918	185.32	709.254	247.429	107.248	541.74	271.998	97.7386	525.226	160.536	191.646	778.397	-135.146	129.326	785.988	-147.633	142.386	714.929	-149.007	127.883	544.241	-145.532	106.285	526.345	-33.3304	21.1705	348.229	301.282	-1.22174	287.432	274.977	71.5713	316.238	292.216
315	1.57	80.3286	1582.94	194.864	80.6395	1582.05	-79.0856	203.267	1531.59	58.5545	56.4717	1602.2	54.6764	3.83795	1486.69	62.2041	238.016	1026.74	193.489	248.972	1032.19	-48.1515	50.2862	1069.42	115.062	50.3883	1066.29	20.121	170.076	766.082	269.223	100.984	708.08	276.891	185.331	709.274	247.42	107.247	541.739	271.999	97.8805	525.28	160.413	191.646	778.374	-135.179	129.284	785.987	-147.617	142.389	714.931	-149.013	127.906	544.227	-145.553	106.282	526.338	-33.3357	21.2008	348.241	301.287	-1.24571	287.411	274.967	71.5899	316.258	292.22
316	1.575	80.3352	1582.95	194.884	80.5902	1582.04	-79.0611	203.246	1531.57	58.544	56.4611	1602.2	54.6699	3.8091	1486.71	62.2145	238.002	1026.71	193.499	248.941	1032.19	-48.1411	50.2585	1069.42	115.091	50.3984	1066.25	20.1244	170.072	766.095	269.241	100.957	708.077	276.94	185.335	709.264	247.398	107.248	541.753	272.001	97.8293	525.236	160.487	191.618	778.376	-135.181	129.303	786.003	-147.675	142.347	714.926	-148.979	127.867	544.188	-145.516	106.289	526.355	-33.3367	21.1965	348.236	301.273	-1.22877	287.431	274.969	71.5743	316.243	292.208
317	1.58	80.333	1582.93	194.9	80.5789	1582.05	-79.0773	203.24	1531.55	58.5515	56.4438	1602.19	54.6812	3.79909	1486.69	62.1995	238.004	1026.72	193.503	248.936	1032.18	-48.145	50.2304	1069.43	115.107	50.3559	1066.26	20.1246	170.07	766.086	269.23	100.935	708.051	276.901	185.342	709.263	247.417	107.183	541.626	271.646	97.7595	525.229	160.494	191.592	778.371	-135.162	129.274	785.959	-147.593	142.352	714.924	-149.012	127.869	544.214	-145.527	106.271	526.331	-33.3217	21.206	348.21	301.255	-1.22034	287.431	274.976	71.572	316.237	292.217
318	1.585	80.2852	1582.93	194.901	80.566	1582.04	-79.0551	203.219	1531.53	58.5569	56.4281	1602.2	54.6986	3.76344	1486.7	62.2293	238.004	1026.73	193.486	248.947	1032.16	-48.1341	50.2496	1069.41	115.102	50.3538	1066.23	20.142	170.094	766.08	269.215	100.934	708.059	276.916	185.339	709.263	247.389	107.145	541.638	271.667	97.8493	525.278	160.436	191.583	778.323	-134.878	129.273	785.939	-147.572	142.367	714.955	-148.995	127.875	544.215	-145.534	106.263	526.322	-33.3211	21.2292	348.201	301.23	-1.21335	287.469	274.997	71.5625	316.223	292.196
319	1.59	80.4167	1583.16	194.902	80.5313	1582.03	-79.0653	203.207	1531.53	58.5623	56.4142	1602.21	54.6989	3.74229	1486.72	62.2455	237.975	1026.72	193.486	248.921	1032.17	-48.1512	50.2196	1069.42	115.113	50.3379	1066.22	20.1386	170.089	766.085	269.222	101.039	708.072	276.858	185.342	709.272	247.379	107.25	541.731	271.977	97.8646	525.291	160.439	191.571	778.308	-134.885	129.263	785.944	-147.568	142.364	714.945	-148.991	127.892	544.216	-145.557	106.244	526.351	-33.3151	21.1911	348.24	301.26	-1.20018	287.434	274.97	71.564	316.25	292.229
320	1.595	80.2721	1582.91	194.932	80.5143	1582.01	-79.0604	203.173	1531.53	58.5503	56.4053	1602.2	54.6795	3.69559	1486.72	62.2389	237.982	1026.73	193.477	248.878	1032.19	-48.1478	50.1925	1069.42	115.087	50.3118	1066.24	20.1606	170.095	766.087	269.202	100.997	708.061	276.879	185.357	709.277	247.378	107.235	541.74	271.985	97.7409	525.258	160.518	191.553	778.303	-134.88	129.268	785.956	-147.576	142.316	714.937	-149.077	127.858	544.184	-145.534	106.268	526.336	-33.3505	21.1838	348.249	301.272	-1.20599	287.414	274.953	71.5533	316.241	292.209
321	1.6	80.2767	1582.92	194.947	80.4763	1582.1	-79.1253	203.166	1531.51	58.5307	56.3884	1602.21	54.6628	3.73263	1486.61	62.3225	237.948	1026.73	193.486	248.879	1032.19	-48.1769	50.1794	1069.4	115.101	50.298	1066.2	20.1309	170.095	766.097	269.19	101.022	708.096	276.857	185.333	709.267	247.378	107.174	541.631	271.657	97.6716	525.246	160.526	191.55	778.311	-134.909	129.245	785.948	-147.595	142.305	714.919	-148.993	127.872	544.214	-145.549	106.244	526.343	-33.3451	21.1926	348.22	301.248	-1.21844	287.475	274.971	71.552	316.23	292.204
322	1.605	80.2703	1582.9	194.917	80.446	1582.1	-79.1401	203.135	1531.51	58.5022	56.3504	1602.21	54.71	3.67708	1486.72	62.229	237.94	1026.73	193.464	248.849	1032.18	-48.1616	50.1487	1069.39	115.054	50.2711	1066.22	20.1175	170.073	766.079	269.192	101.021	708.065	276.852	185.334	709.271	247.366	107.245	541.755	271.997	97.7041	525.239	160.501	191.557	778.381	-135.174	129.285	785.987	-147.698	142.299	714.953	-149.084	127.876	544.211	-145.554	106.196	526.338	-33.3426	21.1788	348.238	301.234	-1.23327	287.438	274.977	71.5333	316.234	292.176
323	1.61	80.2679	1582.9	194.941	80.4124	1582.04	-79.0834	203.108	1531.49	58.4909	56.336	1602.23	54.6828	3.65811	1486.76	62.2269	237.924	1026.74	193.46	248.846	1032.18	-48.1608	50.1212	1069.39	115.082	50.2777	1066.21	20.0912	170.085	766.1	269.197	100.97	708.088	276.894	185.33	709.267	247.353	107.23	541.776	271.993	97.7181	525.244	160.514	191.569	778.394	-135.176	129.262	785.966	-147.642	142.306	714.938	-149.021	127.864	544.217	-145.549	106.242	526.354	-33.3556	21.1664	348.209	301.227	-1.20754	287.385	274.904	71.5461	316.241	292.212
324	1.615	80.2669	1582.91	194.954	80.3803	1581.99	-79.094	203.078	1531.47	58.4797	56.3202	1602.23	54.677	3.60976	1486.75	62.2598	237.924	1026.74	193.459	248.83	1032.18	-48.1539	50.1245	1069.39	115.068	50.268	1066.22	20.0899	170.064	766.106	269.199	101.006	708.093	276.837	185.326	709.28	247.35	107.219	541.754	271.978	97.6952	525.274	160.503	191.564	778.389	-135.165	129.283	785.99	-147.708	142.315	714.93	-149.008	127.858	544.207	-145.536	106.259	526.355	-33.3493	21.1622	348.236	301.254	-1.23126	287.432	274.965	71.5524	316.231	292.176
325	1.62	80.2543	1582.9	194.934	80.3375	1581.97	-79.0857	203.067	1531.48	58.483	56.3214	1602.23	54.6731	3.62673	1486.63	62.3275	237.867	1026.73	193.438	248.82	1032.21	-48.1595	50.1125	1069.39	115.069	50.2595	1066.23	20.0874	170.067	766.122	269.201	100.944	708.067	276.893	185.309	709.274	247.328	107.222	541.784	271.979	97.7357	525.289	160.52	191.561	778.389	-135.182	129.252	785.967	-147.655	142.308	714.921	-149.015	127.849	544.198	-145.519	106.249	526.374	-33.3539	21.17	348.249	301.238	-1.23228	287.446	274.967	71.5395	316.229	292.2
326	1.625	80.2735	1582.91	194.945	80.3315	1582.07	-79.162	203.046	1531.48	58.4631	56.3103	1602.24	54.6751	3.53288	1486.77	62.2537	237.892	1026.73	193.452	248.801	1032.19	-48.1835	50.0803	1069.41	115.039	50.2607	1066.23	20.0636	170.062	766.119	269.196	100.943	708.074	276.855	185.288	709.302	247.325	107.204	541.782	271.974	97.711	525.275	160.474	191.588	778.412	-135.179	129.233	785.974	-147.642	142.295	714.949	-149.083	127.862	544.211	-145.543	106.238	526.362	-33.3466	21.1924	348.234	301.219	-1.21385	287.447	274.945	71.5472	316.26	292.198
327	1.63	80.2401	1582.9	194.931	80.2955	1582.05	-79.1494	203.007	1531.47	58.4502	56.2939	1602.23	54.6381	3.5161	1486.78	62.2834	237.848	1026.75	193.447	248.823	1032.21	-48.1802	50.0643	1069.39	115.023	50.2459	1066.21	20.0652	170.053	766.12	269.175	100.964	708.095	276.86	185.298	709.318	247.328	107.237	541.781	271.932	97.7163	525.298	160.51	191.563	778.417	-135.168	129.256	785.983	-147.639	142.311	714.943	-149.018	127.865	544.211	-145.551	106.25	526.365	-33.3402	21.1794	348.251	301.237	-1.22882	287.446	274.955	71.5505	316.234	292.179
